<?xml version="1.0" encoding="utf-8"?>
<!-- Generator: Adobe Illustrator 25.0.0, SVG Export Plug-In . SVG Version: 6.00 Build 0)  -->
<svg version="1.1" id="Layer_1" xmlns="http://www.w3.org/2000/svg" xmlns:xlink="http://www.w3.org/1999/xlink" x="0px" y="0px"
	 viewBox="0 0 514.2 144.1" style="enable-background:new 0 0 514.2 144.1;" xml:space="preserve">
<style type="text/css">
	.st0{fill:url(#SVGID_1_);}
	.st1{fill:url(#SVGID_2_);}
	.st2{fill:url(#SVGID_3_);}
	.st3{fill:url(#SVGID_4_);}
	.st4{fill:url(#SVGID_5_);}
	.st5{fill:url(#SVGID_6_);}
	.st6{fill:url(#SVGID_7_);}
	.st7{fill:url(#SVGID_8_);}
	.st8{fill:url(#SVGID_9_);}
	.st9{fill:url(#SVGID_10_);}
	.st10{fill:url(#SVGID_11_);}
	.st11{fill:url(#SVGID_12_);}
	.st12{fill:url(#SVGID_13_);}
	.st13{fill:url(#SVGID_14_);}
	.st14{fill:url(#SVGID_15_);}
	.st15{fill:url(#SVGID_16_);}
	.st16{fill:url(#SVGID_17_);}
	.st17{fill:url(#SVGID_18_);}
	.st18{fill:url(#SVGID_19_);}
	.st19{fill:url(#SVGID_20_);}
	.st20{fill:url(#SVGID_21_);}
	.st21{fill:url(#SVGID_22_);}
	.st22{fill:url(#SVGID_23_);}
	.st23{fill:url(#SVGID_24_);}
	.st24{fill:#4C4C4C;}
	.st25{fill:#0D67AE;}
	.st26{fill:url(#SVGID_25_);}
	.st27{fill:url(#SVGID_26_);}
	.st28{fill:url(#SVGID_27_);}
	.st29{fill:url(#SVGID_28_);}
	.st30{fill:url(#SVGID_29_);}
	.st31{fill:url(#SVGID_30_);}
	.st32{fill:url(#SVGID_31_);}
	.st33{fill:url(#SVGID_32_);}
	.st34{fill:url(#SVGID_33_);}
	.st35{fill:url(#SVGID_34_);}
	.st36{fill:url(#SVGID_35_);}
	.st37{fill:url(#SVGID_36_);}
</style>
<g>
	<g>
		<g>
			<linearGradient id="SVGID_1_" gradientUnits="userSpaceOnUse" x1="68.1979" y1="85.6793" x2="74.8363" y2="77.5773">
				<stop  offset="0" style="stop-color:#FFCD1C"/>
				<stop  offset="1" style="stop-color:#EB8F04"/>
			</linearGradient>
			<path class="st0" d="M71.4,75.6v12.3c0,0,0,0,0,0L71.4,75.6L71.4,75.6z"/>
			<linearGradient id="SVGID_2_" gradientUnits="userSpaceOnUse" x1="68.1974" y1="114.329" x2="74.837" y2="106.2255">
				<stop  offset="0" style="stop-color:#FFCD1C"/>
				<stop  offset="1" style="stop-color:#EB8F04"/>
			</linearGradient>
			<path class="st1" d="M71.4,104.3v12.3h0L71.4,104.3C71.4,104.3,71.4,104.3,71.4,104.3z"/>
			<linearGradient id="SVGID_3_" gradientUnits="userSpaceOnUse" x1="86.8594" y1="96.0301" x2="87.0358" y2="95.8148">
				<stop  offset="0" style="stop-color:#FFCD1C"/>
				<stop  offset="1" style="stop-color:#EB8F04"/>
			</linearGradient>
			<path class="st2" d="M86.9,96.1c0-0.1,0-0.2,0-0.3c0,0,0,0,0,0.1C86.9,95.9,86.9,96,86.9,96.1z"/>
			<g>
				<linearGradient id="SVGID_4_" gradientUnits="userSpaceOnUse" x1="68.3238" y1="78.6628" x2="74.4716" y2="84.8852">
					<stop  offset="0" style="stop-color:#0D67AE"/>
					<stop  offset="1" style="stop-color:#009DE0"/>
				</linearGradient>
				<path class="st3" d="M71.4,75.6v12.3c0,0,0,0,0,0L71.4,75.6L71.4,75.6z"/>
				<linearGradient id="SVGID_5_" gradientUnits="userSpaceOnUse" x1="68.3221" y1="107.3101" x2="74.4733" y2="113.5359">
					<stop  offset="0" style="stop-color:#0D67AE"/>
					<stop  offset="1" style="stop-color:#009DE0"/>
				</linearGradient>
				<path class="st4" d="M71.4,104.3v12.3h0L71.4,104.3C71.4,104.3,71.4,104.3,71.4,104.3z"/>
				<linearGradient id="SVGID_6_" gradientUnits="userSpaceOnUse" x1="86.8589" y1="95.8398" x2="87.0299" y2="96.0129">
					<stop  offset="0" style="stop-color:#0D67AE"/>
					<stop  offset="1" style="stop-color:#009DE0"/>
				</linearGradient>
				<path class="st5" d="M86.9,96.1c0-0.1,0-0.2,0-0.3c0,0,0,0,0,0.1C86.9,95.9,86.9,96,86.9,96.1z"/>
			</g>
			<linearGradient id="SVGID_7_" gradientUnits="userSpaceOnUse" x1="46.0825" y1="102.6026" x2="69.9384" y2="80.5079">
				<stop  offset="0" style="stop-color:#FFCD1C"/>
				<stop  offset="1" style="stop-color:#EB8F04"/>
			</linearGradient>
			<path class="st6" d="M86.9,96.1c0,0.1,0,0.2,0,0.3c-0.2,3-2.6,5.4-5.7,5.4c-1.7,0-3.3-0.8-4.3-2c-0.5-0.5-1.1-0.9-1.8-0.9h-3.7
				v5.3c0,0,0,0,0,0v12.3c-1.5,0-2.9-0.4-4.2-1.1L39,99.2c-2.6-1.5-4.2-4.3-4.2-7.3V75.6h15.4v3.7c0,0.7-0.3,1.4-0.9,1.8
				c-1.2,1-2,2.6-2,4.3c0,3.2,2.6,5.8,5.8,5.7c0,0,0.1,0,0.1,0c2.9-0.1,5.3-2.5,5.4-5.4c0.1-1.9-0.7-3.5-2-4.7
				c-0.5-0.4-0.8-1.1-0.8-1.7v-3.8h15.4v12.3c0,0,0,0,0,0v5.3h3.8c0.7,0,1.3-0.3,1.7-0.8c1.1-1.3,2.8-2.1,4.7-2
				c2.9,0.2,5.2,2.5,5.4,5.4C86.9,95.9,86.9,96,86.9,96.1z"/>
			<linearGradient id="SVGID_8_" gradientUnits="userSpaceOnUse" x1="71.0579" y1="69.5876" x2="39.8371" y2="48.1334">
				<stop  offset="0" style="stop-color:#0D67AE"/>
				<stop  offset="1" style="stop-color:#009DE0"/>
			</linearGradient>
			<path class="st7" d="M55.9,54.9c0,0.2,0,0.4,0,0.6c0.1,2.9,2.5,5.3,5.4,5.4c1.9,0.1,3.5-0.7,4.7-2c0.4-0.5,1.1-0.8,1.7-0.8h3.8
				v17.6H56v3.8c0,0.7,0.3,1.3,0.8,1.7c1.3,1.1,2.1,2.8,2,4.7c-0.2,2.9-2.5,5.3-5.4,5.4c0,0-0.1,0-0.1,0c-3.2,0.1-5.8-2.5-5.8-5.7
				c0-1.7,0.8-3.3,2-4.3c0.5-0.5,0.9-1.1,0.9-1.8v-3.7H34.8V59.4c0-3,1.6-5.8,4.2-7.3l28.1-16.2c1.3-0.8,2.8-1.1,4.2-1.1v17.6h-3.7
				c-0.7,0-1.4-0.3-1.8-0.9c-1-1.2-2.6-2-4.3-2C58.5,49.4,56,51.8,55.9,54.9z"/>
			<linearGradient id="SVGID_9_" gradientUnits="userSpaceOnUse" x1="71.3963" y1="81.2008" x2="101.016" y2="102.1748">
				<stop  offset="0" style="stop-color:#0D67AE"/>
				<stop  offset="1" style="stop-color:#009DE0"/>
			</linearGradient>
			<path class="st8" d="M108,75.6v16.2c0,3-1.6,5.8-4.2,7.3l-28.1,16.2c-1.3,0.8-2.8,1.1-4.2,1.1V98.9h3.7c0.7,0,1.4,0.3,1.8,0.9
				c1,1.2,2.6,2,4.3,2c3.1,0,5.5-2.4,5.7-5.4c0-0.1,0-0.2,0-0.3c0-0.1,0-0.2,0-0.3c0,0,0,0,0-0.1c-0.2-2.9-2.5-5.2-5.4-5.4
				c-1.9-0.1-3.5,0.7-4.7,2c-0.4,0.5-1.1,0.8-1.7,0.8h-3.8V75.6h15.4v-3.8c0-0.7-0.3-1.3-0.8-1.7c-1.3-1.1-2.1-2.8-2-4.7
				c0.2-2.9,2.5-5.3,5.4-5.4c0.1,0,0.2,0,0.3,0c0.1,0,0.2,0,0.3,0c3,0.2,5.4,2.6,5.4,5.7c0,1.7-0.8,3.3-2,4.3
				c-0.5,0.5-0.9,1.1-0.9,1.8v3.7H108z"/>
			<linearGradient id="SVGID_10_" gradientUnits="userSpaceOnUse" x1="95.5544" y1="48.9074" x2="73.7799" y2="72.1228">
				<stop  offset="0" style="stop-color:#FFCD1C"/>
				<stop  offset="1" style="stop-color:#EB8F04"/>
			</linearGradient>
			<path class="st9" d="M108,59.4v16.2H92.5v-3.7c0-0.7,0.3-1.4,0.9-1.8c1.2-1,2-2.6,2-4.3c0-3.1-2.4-5.5-5.4-5.7
				c-0.1,0-0.2,0-0.3,0c-0.1,0-0.2,0-0.3,0c-2.9,0.1-5.3,2.5-5.4,5.4c-0.1,1.9,0.7,3.5,2,4.7c0.5,0.4,0.8,1.1,0.8,1.7v3.8H71.4V58
				h-3.8c-0.7,0-1.3,0.3-1.7,0.8c-1.1,1.3-2.8,2.1-4.7,2c-2.9-0.2-5.3-2.5-5.4-5.4c0-0.2,0-0.4,0-0.6c0.2-3,2.6-5.4,5.7-5.4
				c1.7,0,3.3,0.8,4.3,2c0.5,0.5,1.1,0.9,1.8,0.9h3.7V34.7c1.5,0,2.9,0.4,4.2,1.1l28.1,16.2C106.4,53.6,108,56.4,108,59.4z"/>
		</g>
		<linearGradient id="SVGID_11_" gradientUnits="userSpaceOnUse" x1="130.5667" y1="56.9918" x2="5.2435" y2="20.5804">
			<stop  offset="0" style="stop-color:#0D67AE"/>
			<stop  offset="1" style="stop-color:#009DE0"/>
		</linearGradient>
		<path class="st10" d="M142.8,44.1v12.6c0,2.2-2.4,3.5-4.2,2.4l-65.8-38c-0.9-0.5-2-0.5-2.8,0l-65.7,38C2.4,60.2,0,58.8,0,56.7
			V44.1c0-2,1.1-3.9,2.8-4.9L68.6,1.1c1.8-1,3.9-1,5.7,0L140,39.2C141.7,40.2,142.8,42.1,142.8,44.1z"/>
		<linearGradient id="SVGID_12_" gradientUnits="userSpaceOnUse" x1="118.2822" y1="117.6573" x2="12.8788" y2="52.5301">
			<stop  offset="0" style="stop-color:#0D67AE"/>
			<stop  offset="1" style="stop-color:#009DE0"/>
		</linearGradient>
		<path class="st11" d="M119.3,65.9v35.7c0,1-0.5,1.9-1.4,2.4l-45.1,26c-0.9,0.5-2,0.5-2.8,0l-45.1-26c-0.9-0.5-1.4-1.4-1.4-2.4
			V65.9c0-2.2-2.4-3.5-4.2-2.4L15,65.9c-1.7,1-2.8,2.9-2.8,4.9v35.7c0,2,1.1,3.9,2.8,4.9l53.5,30.9c1.7,1,3.9,1,5.7,0l53.5-30.9
			c1.7-1,2.8-2.9,2.8-4.9V70.8c0-2-1.1-3.9-2.8-4.9l-4.2-2.4C121.7,62.4,119.3,63.8,119.3,65.9z"/>
	</g>
	<g>
		<g>
			<path class="st24" d="M176.4,111.3V94.1h2.1v7.6h9.1v-7.6h2.1v17.1h-2.1v-7.7h-9.1v7.7H176.4z"/>
			<path class="st24" d="M199.6,111.5c-1.2,0-2.3-0.3-3.2-0.8c-0.9-0.5-1.6-1.3-2.1-2.3c-0.5-1-0.7-2.1-0.7-3.5s0.2-2.5,0.7-3.5
				c0.5-1,1.2-1.8,2-2.4c0.9-0.6,1.9-0.8,3-0.8c0.7,0,1.3,0.1,2,0.3s1.2,0.6,1.8,1.1c0.5,0.5,1,1.2,1.3,2c0.3,0.8,0.5,1.8,0.5,3v0.8
				H195v-1.7h7.9c0-0.7-0.1-1.4-0.4-1.9c-0.3-0.6-0.7-1-1.2-1.3c-0.5-0.3-1.1-0.5-1.9-0.5c-0.8,0-1.5,0.2-2,0.6
				c-0.6,0.4-1,0.9-1.3,1.5c-0.3,0.6-0.5,1.3-0.5,2v1.1c0,1,0.2,1.8,0.5,2.5c0.3,0.7,0.8,1.2,1.4,1.5c0.6,0.3,1.3,0.5,2.1,0.5
				c0.5,0,1-0.1,1.4-0.2c0.4-0.1,0.8-0.4,1.1-0.7c0.3-0.3,0.5-0.7,0.7-1.1l1.9,0.5c-0.2,0.6-0.5,1.2-1,1.7c-0.5,0.5-1.1,0.9-1.8,1.1
				C201.2,111.4,200.4,111.5,199.6,111.5z M201,96.9l-1.7-2.3l-1.7,2.3h-1.9v-0.1l2.7-3.5h1.8l2.7,3.5v0.1H201z M199.3,115.5
				c-0.4,0-0.7-0.1-1-0.4c-0.3-0.3-0.4-0.6-0.4-0.9c0-0.4,0.1-0.7,0.4-0.9c0.3-0.3,0.6-0.4,1-0.4s0.7,0.1,1,0.4s0.4,0.6,0.4,0.9
				c0,0.4-0.1,0.7-0.4,0.9S199.6,115.5,199.3,115.5z"/>
			<path class="st24" d="M224.8,101.3l-1.8,0.5c-0.1-0.3-0.3-0.6-0.5-0.9c-0.2-0.3-0.5-0.5-0.9-0.7c-0.4-0.2-0.8-0.3-1.4-0.3
				c-0.8,0-1.4,0.2-2,0.5c-0.5,0.4-0.8,0.8-0.8,1.4c0,0.5,0.2,0.9,0.5,1.2c0.4,0.3,0.9,0.5,1.7,0.7l1.9,0.5c1.1,0.3,2,0.7,2.6,1.3
				c0.6,0.6,0.8,1.3,0.8,2.2c0,0.7-0.2,1.4-0.6,2c-0.4,0.6-1,1-1.8,1.4c-0.8,0.3-1.6,0.5-2.6,0.5c-1.3,0-2.4-0.3-3.3-0.9
				c-0.9-0.6-1.4-1.4-1.6-2.5l1.9-0.5c0.2,0.7,0.5,1.2,1,1.6c0.5,0.3,1.2,0.5,2,0.5c0.9,0,1.7-0.2,2.2-0.6c0.5-0.4,0.8-0.9,0.8-1.4
				c0-0.4-0.2-0.8-0.5-1.1c-0.3-0.3-0.8-0.5-1.4-0.7l-2.1-0.5c-1.2-0.3-2-0.7-2.6-1.3c-0.5-0.6-0.8-1.3-0.8-2.2
				c0-0.7,0.2-1.4,0.6-1.9c0.4-0.6,1-1,1.7-1.3c0.7-0.3,1.5-0.5,2.4-0.5c1.3,0,2.3,0.3,3,0.8C224,99.6,224.5,100.4,224.8,101.3z"/>
			<path class="st24" d="M229.6,96.3c-0.4,0-0.7-0.1-1-0.4c-0.3-0.3-0.4-0.6-0.4-0.9c0-0.4,0.1-0.7,0.4-0.9c0.3-0.3,0.6-0.4,1-0.4
				s0.7,0.1,1,0.4s0.4,0.6,0.4,0.9c0,0.4-0.1,0.7-0.4,0.9S230,96.3,229.6,96.3z M228.6,111.3V98.4h2v12.9H228.6z"/>
			<path class="st24" d="M236.8,103.5v7.7h-2V98.4h1.9v2h0.2c0.3-0.7,0.8-1.2,1.4-1.6c0.6-0.4,1.4-0.6,2.4-0.6
				c0.9,0,1.6,0.2,2.3,0.5c0.7,0.4,1.2,0.9,1.5,1.6c0.4,0.7,0.5,1.6,0.5,2.7v8.2h-2v-8c0-1-0.3-1.8-0.8-2.4
				c-0.5-0.6-1.2-0.8-2.2-0.8c-0.6,0-1.2,0.1-1.7,0.4c-0.5,0.3-0.9,0.7-1.2,1.2C236.9,102.2,236.8,102.8,236.8,103.5z"/>
			<path class="st24" d="M251.2,103.5v7.7h-2V94.1h2v6.3h0.2c0.3-0.7,0.8-1.2,1.4-1.6c0.6-0.4,1.4-0.6,2.4-0.6
				c0.9,0,1.6,0.2,2.3,0.5c0.7,0.3,1.2,0.9,1.5,1.6c0.4,0.7,0.5,1.6,0.5,2.7v8.2h-2v-8c0-1-0.3-1.8-0.8-2.4s-1.3-0.8-2.2-0.8
				c-0.6,0-1.2,0.1-1.7,0.4c-0.5,0.3-0.9,0.7-1.2,1.2C251.3,102.2,251.2,102.8,251.2,103.5z"/>
			<path class="st24" d="M276.5,98.4v1.7h-6.7v-1.7H276.5z M271.8,95.3h2v12.3c0,0.6,0.1,1,0.2,1.3c0.2,0.3,0.4,0.5,0.6,0.6
				c0.3,0.1,0.5,0.1,0.8,0.1c0.2,0,0.4,0,0.5,0c0.1,0,0.3,0,0.3-0.1l0.4,1.8c-0.1,0.1-0.3,0.1-0.6,0.2c-0.2,0.1-0.5,0.1-0.9,0.1
				c-0.6,0-1.1-0.1-1.6-0.4c-0.5-0.2-1-0.6-1.3-1.1c-0.3-0.5-0.5-1.1-0.5-1.9V95.3z"/>
			<path class="st24" d="M282.3,103.5v7.7h-2V94.1h2v6.3h0.2c0.3-0.7,0.8-1.2,1.4-1.6c0.6-0.4,1.4-0.6,2.4-0.6
				c0.9,0,1.6,0.2,2.3,0.5c0.7,0.3,1.2,0.9,1.5,1.6c0.4,0.7,0.5,1.6,0.5,2.7v8.2h-2v-8c0-1-0.3-1.8-0.8-2.4s-1.3-0.8-2.2-0.8
				c-0.6,0-1.2,0.1-1.7,0.4c-0.5,0.3-0.9,0.7-1.2,1.2C282.5,102.2,282.3,102.8,282.3,103.5z"/>
			<path class="st24" d="M298.6,111.6c-0.8,0-1.6-0.2-2.2-0.5c-0.7-0.3-1.2-0.8-1.6-1.3c-0.4-0.6-0.6-1.3-0.6-2.1
				c0-0.7,0.1-1.3,0.4-1.8c0.3-0.5,0.7-0.8,1.2-1.1c0.5-0.3,1-0.5,1.6-0.6c0.6-0.1,1.2-0.2,1.8-0.3c0.8-0.1,1.4-0.2,1.9-0.2
				c0.5-0.1,0.8-0.1,1.1-0.3c0.2-0.1,0.3-0.4,0.3-0.7v-0.1c0-0.8-0.2-1.5-0.7-1.9c-0.4-0.5-1.1-0.7-2-0.7c-0.9,0-1.7,0.2-2.2,0.6
				c-0.5,0.4-0.9,0.9-1.1,1.3l-1.9-0.7c0.3-0.8,0.8-1.4,1.3-1.8s1.2-0.7,1.8-0.9c0.7-0.2,1.3-0.3,2-0.3c0.4,0,0.9,0,1.4,0.1
				c0.5,0.1,1.1,0.3,1.6,0.6c0.5,0.3,0.9,0.8,1.3,1.4c0.3,0.6,0.5,1.4,0.5,2.4v8.5h-2v-1.7h-0.1c-0.1,0.3-0.4,0.6-0.7,0.9
				s-0.7,0.6-1.2,0.8C300,111.5,299.4,111.6,298.6,111.6z M298.9,109.8c0.8,0,1.4-0.2,2-0.5c0.5-0.3,0.9-0.7,1.2-1.2
				c0.3-0.5,0.4-1,0.4-1.5v-1.8c-0.1,0.1-0.3,0.2-0.5,0.3c-0.3,0.1-0.6,0.2-1,0.2c-0.4,0.1-0.7,0.1-1.1,0.2c-0.3,0-0.6,0.1-0.8,0.1
				c-0.5,0.1-1,0.2-1.4,0.3s-0.8,0.4-1.1,0.7c-0.3,0.3-0.4,0.7-0.4,1.2c0,0.7,0.3,1.2,0.8,1.6C297.5,109.6,298.2,109.8,298.9,109.8z
				 M299,96.7l2-3.9h2.3l-2.6,3.9H299z"/>
			<path class="st24" d="M309.7,96.3c-0.4,0-0.7-0.1-1-0.4s-0.4-0.6-0.4-0.9c0-0.4,0.1-0.7,0.4-0.9s0.6-0.4,1-0.4
				c0.4,0,0.7,0.1,1,0.4c0.3,0.3,0.4,0.6,0.4,0.9c0,0.4-0.1,0.7-0.4,0.9C310.5,96.1,310.1,96.3,309.7,96.3z M308.7,111.3V98.4h2
				v12.9H308.7z"/>
			<path class="st24" d="M327,111.5c-1.1,0-2-0.3-2.8-0.8c-0.8-0.5-1.5-1.3-1.9-2.3c-0.5-1-0.7-2.2-0.7-3.5c0-1.4,0.2-2.5,0.7-3.5
				c0.5-1,1.1-1.8,1.9-2.3c0.8-0.5,1.8-0.8,2.9-0.8c0.8,0,1.5,0.1,2,0.4c0.5,0.3,0.9,0.6,1.1,0.9c0.3,0.3,0.5,0.6,0.6,0.9h0.2v-6.3
				h2v17.1H331v-2h-0.2c-0.1,0.2-0.4,0.5-0.6,0.9c-0.3,0.4-0.7,0.7-1.1,0.9C328.5,111.4,327.8,111.5,327,111.5z M327.3,109.8
				c0.8,0,1.5-0.2,2-0.6c0.5-0.4,1-1,1.2-1.7c0.3-0.7,0.4-1.6,0.4-2.6c0-1-0.1-1.8-0.4-2.5c-0.3-0.7-0.7-1.3-1.2-1.7
				c-0.5-0.4-1.2-0.6-2-0.6c-0.8,0-1.5,0.2-2.1,0.6c-0.6,0.4-1,1-1.2,1.7c-0.3,0.7-0.4,1.5-0.4,2.4c0,0.9,0.1,1.7,0.4,2.5
				c0.3,0.7,0.7,1.3,1.3,1.8C325.7,109.5,326.4,109.8,327.3,109.8z"/>
			<path class="st24" d="M342.6,111.5c-1.2,0-2.2-0.3-3.1-0.8c-0.9-0.6-1.6-1.3-2-2.3c-0.5-1-0.7-2.2-0.7-3.5c0-1.3,0.2-2.5,0.7-3.5
				c0.5-1,1.2-1.8,2-2.3c0.9-0.6,1.9-0.8,3.1-0.8c1.2,0,2.2,0.3,3.1,0.8c0.9,0.6,1.6,1.3,2,2.3c0.5,1,0.7,2.2,0.7,3.5
				c0,1.3-0.2,2.5-0.7,3.5c-0.5,1-1.2,1.8-2,2.3C344.8,111.3,343.7,111.5,342.6,111.5z M342.6,109.8c0.9,0,1.6-0.2,2.2-0.7
				c0.6-0.5,1-1,1.3-1.8c0.3-0.7,0.4-1.5,0.4-2.4s-0.1-1.7-0.4-2.4c-0.3-0.7-0.7-1.3-1.3-1.8s-1.3-0.7-2.2-0.7
				c-0.9,0-1.6,0.2-2.2,0.7c-0.6,0.5-1,1.1-1.3,1.8c-0.3,0.7-0.4,1.5-0.4,2.4s0.1,1.7,0.4,2.4c0.3,0.7,0.7,1.3,1.3,1.8
				C341,109.5,341.7,109.8,342.6,109.8z"/>
			<path class="st24" d="M355.8,111.6c-0.8,0-1.6-0.2-2.2-0.5c-0.7-0.3-1.2-0.8-1.6-1.3c-0.4-0.6-0.6-1.3-0.6-2.1
				c0-0.7,0.1-1.3,0.4-1.8c0.3-0.5,0.7-0.8,1.2-1.1c0.5-0.3,1-0.5,1.6-0.6c0.6-0.1,1.2-0.2,1.8-0.3c0.8-0.1,1.4-0.2,1.9-0.2
				c0.5-0.1,0.8-0.1,1.1-0.3c0.2-0.1,0.3-0.4,0.3-0.7v-0.1c0-0.8-0.2-1.5-0.7-1.9c-0.4-0.5-1.1-0.7-2-0.7c-0.9,0-1.7,0.2-2.2,0.6
				c-0.5,0.4-0.9,0.9-1.1,1.3l-1.9-0.7c0.3-0.8,0.8-1.4,1.3-1.8s1.2-0.7,1.8-0.9c0.7-0.2,1.3-0.3,2-0.3c0.4,0,0.9,0,1.4,0.1
				c0.5,0.1,1.1,0.3,1.6,0.6c0.5,0.3,0.9,0.8,1.3,1.4c0.3,0.6,0.5,1.4,0.5,2.4v8.5h-2v-1.7h-0.1c-0.1,0.3-0.4,0.6-0.7,0.9
				c-0.3,0.3-0.7,0.6-1.2,0.8C357.2,111.5,356.5,111.6,355.8,111.6z M356.1,109.8c0.8,0,1.4-0.2,2-0.5c0.5-0.3,0.9-0.7,1.2-1.2
				c0.3-0.5,0.4-1,0.4-1.5v-1.8c-0.1,0.1-0.3,0.2-0.5,0.3c-0.3,0.1-0.6,0.2-1,0.2c-0.4,0.1-0.7,0.1-1.1,0.2c-0.3,0-0.6,0.1-0.8,0.1
				c-0.5,0.1-1,0.2-1.4,0.3s-0.8,0.4-1.1,0.7c-0.3,0.3-0.4,0.7-0.4,1.2c0,0.7,0.3,1.2,0.8,1.6C354.7,109.6,355.3,109.8,356.1,109.8z
				"/>
			<path class="st24" d="M367.9,103.5v7.7h-2V98.4h1.9v2h0.2c0.3-0.7,0.8-1.2,1.4-1.6c0.6-0.4,1.4-0.6,2.4-0.6
				c0.9,0,1.6,0.2,2.3,0.5c0.7,0.4,1.2,0.9,1.5,1.6c0.4,0.7,0.5,1.6,0.5,2.7v8.2h-2v-8c0-1-0.3-1.8-0.8-2.4
				c-0.5-0.6-1.2-0.8-2.2-0.8c-0.6,0-1.2,0.1-1.7,0.4c-0.5,0.3-0.9,0.7-1.2,1.2C368,102.2,367.9,102.8,367.9,103.5z"/>
			<path class="st24" d="M382.3,103.5v7.7h-2V94.1h2v6.3h0.2c0.3-0.7,0.8-1.2,1.4-1.6s1.4-0.6,2.4-0.6c0.9,0,1.6,0.2,2.3,0.5
				c0.7,0.3,1.2,0.9,1.5,1.6s0.5,1.6,0.5,2.7v8.2h-2v-8c0-1-0.3-1.8-0.8-2.4s-1.3-0.8-2.2-0.8c-0.6,0-1.2,0.1-1.7,0.4
				c-0.5,0.3-0.9,0.7-1.2,1.2C382.4,102.2,382.3,102.8,382.3,103.5z"/>
			<path class="st24" d="M404,103.5v7.7h-2V98.4h1.9v2h0.2c0.3-0.7,0.8-1.2,1.4-1.6c0.6-0.4,1.4-0.6,2.4-0.6c0.9,0,1.6,0.2,2.3,0.5
				c0.7,0.4,1.2,0.9,1.5,1.6c0.4,0.7,0.5,1.6,0.5,2.7v8.2h-2v-8c0-1-0.3-1.8-0.8-2.4c-0.5-0.6-1.2-0.8-2.2-0.8
				c-0.6,0-1.2,0.1-1.7,0.4c-0.5,0.3-0.9,0.7-1.2,1.2C404.1,102.2,404,102.8,404,103.5z"/>
			<path class="st24" d="M421.6,116.4c-1,0-1.8-0.1-2.5-0.4c-0.7-0.2-1.3-0.6-1.7-1c-0.5-0.4-0.8-0.8-1.1-1.3l1.6-1.1
				c0.2,0.2,0.4,0.5,0.7,0.8c0.3,0.3,0.6,0.6,1.1,0.8c0.5,0.2,1.1,0.3,1.9,0.3c1,0,1.9-0.3,2.6-0.8c0.7-0.5,1-1.3,1-2.4v-2.6H425
				c-0.1,0.2-0.4,0.5-0.6,0.9c-0.3,0.3-0.6,0.6-1.1,0.9c-0.5,0.3-1.2,0.4-2,0.4c-1,0-2-0.2-2.8-0.7c-0.8-0.5-1.5-1.2-1.9-2.1
				c-0.5-0.9-0.7-2.1-0.7-3.4c0-1.3,0.2-2.5,0.7-3.4c0.5-1,1.1-1.7,1.9-2.3c0.8-0.5,1.8-0.8,2.9-0.8c0.8,0,1.5,0.1,2,0.4
				c0.5,0.3,0.9,0.6,1.1,0.9c0.3,0.3,0.5,0.6,0.6,0.9h0.2v-2h1.9v13.2c0,1.1-0.2,2-0.7,2.7s-1.2,1.2-2,1.5
				C423.5,116.2,422.6,116.4,421.6,116.4z M421.5,109.3c0.8,0,1.5-0.2,2-0.5c0.5-0.4,1-0.9,1.2-1.6c0.3-0.7,0.4-1.5,0.4-2.4
				c0-0.9-0.1-1.7-0.4-2.5c-0.3-0.7-0.7-1.3-1.2-1.7c-0.5-0.4-1.2-0.6-2-0.6c-0.8,0-1.5,0.2-2.1,0.6c-0.6,0.4-1,1-1.2,1.7
				c-0.3,0.7-0.4,1.5-0.4,2.4c0,0.9,0.1,1.7,0.4,2.4c0.3,0.7,0.7,1.2,1.3,1.6C420,109.1,420.7,109.3,421.5,109.3z"/>
			<path class="st24" d="M433.3,103.5v7.7h-2V94.1h2v6.3h0.2c0.3-0.7,0.8-1.2,1.4-1.6c0.6-0.4,1.4-0.6,2.4-0.6
				c0.9,0,1.6,0.2,2.3,0.5c0.7,0.3,1.2,0.9,1.5,1.6c0.4,0.7,0.5,1.6,0.5,2.7v8.2h-2v-8c0-1-0.3-1.8-0.8-2.4
				c-0.5-0.6-1.3-0.8-2.2-0.8c-0.6,0-1.2,0.1-1.7,0.4c-0.5,0.3-0.9,0.7-1.2,1.2C433.5,102.2,433.3,102.8,433.3,103.5z"/>
			<path class="st24" d="M446.9,96.3c-0.4,0-0.7-0.1-1-0.4c-0.3-0.3-0.4-0.6-0.4-0.9c0-0.4,0.1-0.7,0.4-0.9c0.3-0.3,0.6-0.4,1-0.4
				s0.7,0.1,1,0.4c0.3,0.3,0.4,0.6,0.4,0.9c0,0.4-0.1,0.7-0.4,0.9C447.6,96.1,447.3,96.3,446.9,96.3z M445.9,111.3V98.4h2v12.9
				H445.9z"/>
			<path class="st24" d="M457.4,111.5c-1.2,0-2.3-0.3-3.2-0.8c-0.9-0.5-1.6-1.3-2.1-2.3c-0.5-1-0.7-2.1-0.7-3.5s0.2-2.5,0.7-3.5
				c0.5-1,1.2-1.8,2-2.4c0.9-0.6,1.9-0.8,3-0.8c0.7,0,1.3,0.1,2,0.3s1.2,0.6,1.8,1.1c0.5,0.5,1,1.2,1.3,2c0.3,0.8,0.5,1.8,0.5,3v0.8
				h-9.9v-1.7h7.9c0-0.7-0.1-1.4-0.4-1.9c-0.3-0.6-0.7-1-1.2-1.3c-0.5-0.3-1.1-0.5-1.9-0.5c-0.8,0-1.5,0.2-2,0.6
				c-0.6,0.4-1,0.9-1.3,1.5c-0.3,0.6-0.5,1.3-0.5,2v1.1c0,1,0.2,1.8,0.5,2.5c0.3,0.7,0.8,1.2,1.4,1.5c0.6,0.3,1.3,0.5,2.1,0.5
				c0.5,0,1-0.1,1.4-0.2c0.4-0.1,0.8-0.4,1.1-0.7c0.3-0.3,0.5-0.7,0.7-1.1l1.9,0.5c-0.2,0.6-0.5,1.2-1,1.7c-0.5,0.5-1.1,0.9-1.8,1.1
				C459.1,111.4,458.3,111.5,457.4,111.5z M458.9,96.9l-1.7-2.3l-1.7,2.3h-1.9v-0.1l2.7-3.5h1.8l2.7,3.5v0.1H458.9z M457.1,115.5
				c-0.4,0-0.7-0.1-1-0.4c-0.3-0.3-0.4-0.6-0.4-0.9c0-0.4,0.1-0.7,0.4-0.9c0.3-0.3,0.6-0.4,1-0.4c0.4,0,0.7,0.1,1,0.4
				c0.3,0.3,0.4,0.6,0.4,0.9c0,0.4-0.1,0.7-0.4,0.9C457.8,115.4,457.5,115.5,457.1,115.5z"/>
			<path class="st24" d="M466.4,116.1V98.4h1.9v2h0.2c0.1-0.2,0.3-0.5,0.6-0.9c0.3-0.3,0.6-0.7,1.1-0.9c0.5-0.3,1.2-0.4,2-0.4
				c1.1,0,2,0.3,2.9,0.8c0.8,0.5,1.5,1.3,1.9,2.3c0.5,1,0.7,2.2,0.7,3.5c0,1.4-0.2,2.5-0.7,3.5c-0.5,1-1.1,1.8-1.9,2.3
				c-0.8,0.5-1.8,0.8-2.8,0.8c-0.8,0-1.5-0.1-2-0.4s-0.9-0.6-1.1-0.9c-0.3-0.4-0.5-0.6-0.6-0.9h-0.2v6.8H466.4z M468.3,104.8
				c0,1,0.1,1.8,0.4,2.6c0.3,0.7,0.7,1.3,1.2,1.7c0.5,0.4,1.2,0.6,2,0.6c0.8,0,1.5-0.2,2.1-0.7c0.6-0.4,1-1,1.3-1.8
				c0.3-0.7,0.4-1.6,0.4-2.5c0-0.9-0.1-1.7-0.4-2.4c-0.3-0.7-0.7-1.3-1.2-1.7c-0.6-0.4-1.3-0.6-2.1-0.6c-0.8,0-1.5,0.2-2,0.6
				c-0.5,0.4-1,1-1.2,1.7C468.4,103,468.3,103.9,468.3,104.8z"/>
			<path class="st24" d="M497.6,101.3l-1.8,0.5c-0.1-0.3-0.3-0.6-0.5-0.9c-0.2-0.3-0.5-0.5-0.9-0.7c-0.4-0.2-0.8-0.3-1.4-0.3
				c-0.8,0-1.4,0.2-2,0.5c-0.5,0.4-0.8,0.8-0.8,1.4c0,0.5,0.2,0.9,0.5,1.2c0.4,0.3,0.9,0.5,1.7,0.7l1.9,0.5c1.1,0.3,2,0.7,2.6,1.3
				c0.6,0.6,0.8,1.3,0.8,2.2c0,0.7-0.2,1.4-0.6,2c-0.4,0.6-1,1-1.8,1.4c-0.8,0.3-1.6,0.5-2.6,0.5c-1.3,0-2.4-0.3-3.3-0.9
				c-0.9-0.6-1.4-1.4-1.6-2.5l1.9-0.5c0.2,0.7,0.5,1.2,1,1.6c0.5,0.3,1.2,0.5,2,0.5c0.9,0,1.7-0.2,2.2-0.6c0.5-0.4,0.8-0.9,0.8-1.4
				c0-0.4-0.2-0.8-0.5-1.1c-0.3-0.3-0.8-0.5-1.4-0.7l-2.1-0.5c-1.2-0.3-2-0.7-2.6-1.3c-0.5-0.6-0.8-1.3-0.8-2.2
				c0-0.7,0.2-1.4,0.6-1.9c0.4-0.6,1-1,1.7-1.3c0.7-0.3,1.5-0.5,2.4-0.5c1.3,0,2.3,0.3,3,0.8C496.8,99.6,497.3,100.4,497.6,101.3z"
				/>
			<path class="st24" d="M506.7,111.5c-1.2,0-2.2-0.3-3.1-0.8c-0.9-0.6-1.6-1.3-2-2.3c-0.5-1-0.7-2.2-0.7-3.5c0-1.3,0.2-2.5,0.7-3.5
				s1.2-1.8,2-2.3c0.9-0.6,1.9-0.8,3.1-0.8c1.2,0,2.2,0.3,3.1,0.8c0.9,0.6,1.6,1.3,2,2.3c0.5,1,0.7,2.2,0.7,3.5
				c0,1.3-0.2,2.5-0.7,3.5c-0.5,1-1.2,1.8-2,2.3C508.8,111.3,507.8,111.5,506.7,111.5z M502.3,96.8l3.4-3h1.8l3.4,3h-2.4l-1.9-1.8
				l-1.9,1.8H502.3z M506.7,109.8c0.9,0,1.6-0.2,2.2-0.7c0.6-0.5,1-1,1.3-1.8c0.3-0.7,0.4-1.5,0.4-2.4s-0.1-1.7-0.4-2.4
				c-0.3-0.7-0.7-1.3-1.3-1.8c-0.6-0.5-1.3-0.7-2.2-0.7c-0.9,0-1.6,0.2-2.2,0.7c-0.6,0.5-1,1.1-1.3,1.8c-0.3,0.7-0.4,1.5-0.4,2.4
				s0.1,1.7,0.4,2.4c0.3,0.7,0.7,1.3,1.3,1.8C505.1,109.5,505.8,109.8,506.7,109.8z M510.1,94.8l1.6-3h2.4l-2.3,3H510.1z"/>
		</g>
		<g>
			<path class="st25" d="M188.4,35.3l10.1,33.2h0.4l10.1-33.2h12.3l-15.3,45.4h-14.6l-15.3-45.4H188.4z"/>
			<path class="st25" d="M267.1,35.3v45.4h-9.3l-18-26.2h-0.3v26.2h-11V35.3h9.4l17.8,26.1h0.4V35.3H267.1z"/>
			<path class="st25" d="M276.2,80.7V35.3H295c3.4,0,6.3,0.7,8.8,2c2.5,1.3,4.4,3.2,5.7,5.5c1.3,2.4,2,5.1,2,8.2
				c0,3.1-0.7,5.9-2,8.2c-1.4,2.3-3.3,4.2-5.8,5.4s-5.5,1.9-9,1.9h-11.6v-8.6h9.5c1.7,0,3-0.3,4.2-0.9c1.1-0.6,2-1.4,2.5-2.4
				c0.6-1,0.9-2.3,0.9-3.6c0-1.4-0.3-2.6-0.9-3.6c-0.6-1-1.4-1.8-2.5-2.4c-1.1-0.6-2.5-0.8-4.1-0.8h-5.4v36.5H276.2z"/>
			<path class="st25" d="M317.6,44.2v-8.9H356v8.9h-13.8v36.5h-10.8V44.2H317.6z"/>
			<path class="st25" d="M403.8,48.9c-0.1-1.6-0.8-2.9-2-3.8c-1.2-0.9-2.8-1.4-4.9-1.4c-1.4,0-2.6,0.2-3.5,0.6
				c-0.9,0.4-1.7,0.9-2.1,1.5c-0.5,0.6-0.7,1.4-0.7,2.2c0,0.7,0.1,1.3,0.4,1.8s0.7,1,1.3,1.4s1.3,0.7,2.1,1s1.8,0.6,2.8,0.8l3.9,0.9
				c2.2,0.5,4.2,1.1,5.9,1.9c1.7,0.8,3.2,1.8,4.3,2.9c1.2,1.1,2.1,2.4,2.7,3.9c0.6,1.5,0.9,3.1,0.9,4.9c0,2.9-0.7,5.3-2.2,7.4
				c-1.4,2.1-3.5,3.6-6.2,4.7c-2.7,1.1-5.9,1.6-9.7,1.6c-3.8,0-7.1-0.6-9.9-1.7c-2.8-1.1-5-2.9-6.6-5.2c-1.6-2.3-2.4-5.2-2.4-8.8
				h10.5c0.1,1.5,0.5,2.7,1.2,3.7c0.7,1,1.7,1.7,2.9,2.2c1.2,0.5,2.6,0.8,4.2,0.8c1.5,0,2.7-0.2,3.8-0.6c1-0.4,1.8-1,2.4-1.7
				c0.6-0.7,0.8-1.5,0.9-2.4c0-0.9-0.3-1.6-0.8-2.2c-0.5-0.6-1.3-1.1-2.4-1.6c-1.1-0.5-2.4-0.9-4.1-1.3l-4.7-1.1
				c-3.9-0.9-7-2.4-9.3-4.4c-2.3-2-3.4-4.7-3.4-8.2c0-2.8,0.7-5.3,2.3-7.4s3.6-3.8,6.3-4.9c2.7-1.2,5.8-1.8,9.2-1.8
				c3.5,0,6.6,0.6,9.2,1.8c2.6,1.2,4.6,2.9,6,5c1.4,2.1,2.2,4.6,2.2,7.4H403.8z"/>
			<path class="st25" d="M422.7,35.3h13.6l11.5,28.1h0.5l11.5-28.1h13.6v45.4h-10.7V52.8h-0.4l-10.9,27.6h-6.8l-10.9-27.7h-0.4v28
				h-10.7V35.3z"/>
			<path class="st25" d="M482.5,80.7V35.3h31.6v8.9h-20.7v9.3h19v8.9h-19v9.3h20.7v8.9H482.5z"/>
		</g>
	</g>
</g>
</svg>
